<svg width="284" height="49" viewBox="0 0 284 49" fill="none" xmlns="http://www.w3.org/2000/svg">
<path d="M22.4375 9.40625L9.46875 48H0.375L17.375 2.5H23.1875L22.4375 9.40625ZM33.2812 48L20.25 9.40625L19.4688 2.5H25.3125L42.4062 48H33.2812ZM32.6875 31.0938V37.875H8.28125V31.0938H32.6875ZM55.2188 0V48H46.9375V0H55.2188ZM71.8438 0V48H63.5625V0H71.8438Z" fill="#0DD9E8"/>
<path d="M96.1562 25.25V31.7812H79.0625V25.25H96.1562ZM134.031 21.2812V28.0312H110.094V21.2812H134.031ZM112.438 2.5V48H103.844V2.5H112.438ZM140.406 2.5V48H131.812V2.5H140.406ZM163.719 48.625C161.156 48.625 158.854 48.2083 156.812 47.375C154.771 46.5417 153.031 45.3854 151.594 43.9062C150.177 42.4062 149.083 40.6667 148.312 38.6875C147.562 36.6875 147.188 34.5417 147.188 32.25V31C147.188 28.3958 147.562 26.0312 148.312 23.9062C149.062 21.7604 150.125 19.9167 151.5 18.375C152.875 16.8333 154.521 15.6458 156.438 14.8125C158.354 13.9792 160.469 13.5625 162.781 13.5625C165.177 13.5625 167.292 13.9688 169.125 14.7812C170.958 15.5729 172.49 16.6979 173.719 18.1562C174.948 19.6146 175.875 21.3646 176.5 23.4062C177.125 25.4271 177.438 27.6667 177.438 30.125V33.5938H150.938V27.9062H169.312V27.2812C169.271 25.9688 169.021 24.7708 168.562 23.6875C168.104 22.5833 167.396 21.7083 166.438 21.0625C165.479 20.3958 164.24 20.0625 162.719 20.0625C161.49 20.0625 160.417 20.3333 159.5 20.875C158.604 21.3958 157.854 22.1458 157.25 23.125C156.667 24.0833 156.229 25.2292 155.938 26.5625C155.646 27.8958 155.5 29.375 155.5 31V32.25C155.5 33.6667 155.688 34.9792 156.062 36.1875C156.458 37.3958 157.031 38.4479 157.781 39.3438C158.552 40.2188 159.469 40.9062 160.531 41.4062C161.615 41.8854 162.844 42.125 164.219 42.125C165.948 42.125 167.51 41.7917 168.906 41.125C170.323 40.4375 171.552 39.4271 172.594 38.0938L176.75 42.4062C176.042 43.4479 175.083 44.4479 173.875 45.4062C172.688 46.3646 171.25 47.1458 169.562 47.75C167.875 48.3333 165.927 48.625 163.719 48.625ZM201.594 40.8125V25.2188C201.594 24.0729 201.396 23.0833 201 22.25C200.604 21.4167 200 20.7708 199.188 20.3125C198.375 19.8542 197.344 19.625 196.094 19.625C194.99 19.625 194.021 19.8125 193.188 20.1875C192.375 20.5625 191.75 21.0938 191.312 21.7812C190.875 22.4479 190.656 23.2188 190.656 24.0938H182.375C182.375 22.6979 182.708 21.375 183.375 20.125C184.042 18.8542 184.99 17.7292 186.219 16.75C187.469 15.75 188.958 14.9688 190.688 14.4062C192.438 13.8438 194.396 13.5625 196.562 13.5625C199.125 13.5625 201.406 14 203.406 14.875C205.427 15.7292 207.01 17.0208 208.156 18.75C209.323 20.4792 209.906 22.6562 209.906 25.2812V40.0312C209.906 41.7188 210.01 43.1667 210.219 44.375C210.448 45.5625 210.781 46.5938 211.219 47.4688V48H202.812C202.417 47.1458 202.115 46.0625 201.906 44.75C201.698 43.4167 201.594 42.1042 201.594 40.8125ZM202.75 27.4062L202.812 32.3125H197.594C196.302 32.3125 195.167 32.4479 194.188 32.7188C193.208 32.9688 192.406 33.3438 191.781 33.8438C191.156 34.3229 190.688 34.9062 190.375 35.5938C190.062 36.2604 189.906 37.0208 189.906 37.875C189.906 38.7083 190.094 39.4583 190.469 40.125C190.865 40.7917 191.427 41.3229 192.156 41.7188C192.906 42.0938 193.781 42.2812 194.781 42.2812C196.24 42.2812 197.51 41.9896 198.594 41.4062C199.677 40.8021 200.521 40.0729 201.125 39.2188C201.729 38.3646 202.052 37.5521 202.094 36.7812L204.469 40.3438C204.177 41.1979 203.74 42.1042 203.156 43.0625C202.573 44.0208 201.823 44.9167 200.906 45.75C199.99 46.5833 198.885 47.2708 197.594 47.8125C196.302 48.3542 194.802 48.625 193.094 48.625C190.906 48.625 188.948 48.1875 187.219 47.3125C185.49 46.4375 184.125 45.2396 183.125 43.7188C182.125 42.1979 181.625 40.4688 181.625 38.5312C181.625 36.7396 181.958 35.1562 182.625 33.7812C183.292 32.4062 184.281 31.25 185.594 30.3125C186.906 29.3542 188.531 28.6354 190.469 28.1562C192.427 27.6562 194.667 27.4062 197.188 27.4062H202.75ZM226.094 0V48H217.812V0H226.094ZM249.969 14.1875V20.125H230.594V14.1875H249.969ZM235.781 5.875H244.062V38.25C244.062 39.25 244.198 40.0208 244.469 40.5625C244.74 41.1042 245.146 41.4688 245.688 41.6562C246.229 41.8438 246.875 41.9375 247.625 41.9375C248.167 41.9375 248.667 41.9062 249.125 41.8438C249.583 41.7812 249.969 41.7188 250.281 41.6562L250.312 47.8438C249.625 48.0729 248.844 48.2604 247.969 48.4062C247.115 48.5521 246.146 48.625 245.062 48.625C243.208 48.625 241.583 48.3125 240.188 47.6875C238.792 47.0417 237.708 46.0104 236.938 44.5938C236.167 43.1562 235.781 41.2604 235.781 38.9062V5.875ZM263.562 0V48H255.281V0H263.562ZM262.25 29.875H259.812C259.812 27.5208 260.125 25.3542 260.75 23.375C261.375 21.3958 262.26 19.6771 263.406 18.2188C264.552 16.7396 265.917 15.5938 267.5 14.7812C269.104 13.9688 270.875 13.5625 272.812 13.5625C274.479 13.5625 275.99 13.8021 277.344 14.2812C278.719 14.7396 279.896 15.4792 280.875 16.5C281.854 17.5208 282.604 18.8542 283.125 20.5C283.667 22.125 283.938 24.1042 283.938 26.4375V48H275.625V26.375C275.625 24.8125 275.396 23.5833 274.938 22.6875C274.479 21.7708 273.823 21.1146 272.969 20.7188C272.135 20.3229 271.104 20.125 269.875 20.125C268.542 20.125 267.396 20.3854 266.438 20.9062C265.479 21.4062 264.688 22.1042 264.062 23C263.458 23.8958 263 24.9271 262.688 26.0938C262.396 27.2604 262.25 28.5208 262.25 29.875Z" fill="black"/>
</svg>
